<svg width="92" height="16" viewBox="0 0 92 16" fill="none" xmlns="http://www.w3.org/2000/svg">
<path d="M0.0669923 16V0.797999H5.78699C6.88699 0.797999 7.87699 0.995999 8.75699 1.392C9.63699 1.788 10.3483 2.316 10.891 2.976C12.0057 4.35467 12.563 5.98267 12.563 7.86C12.563 10.236 11.8443 12.1867 10.407 13.712C8.96966 15.2373 7.05566 16 4.66499 16H0.0669923ZM5.54499 2.47H1.95899V14.328H4.66499C6.48366 14.328 7.89166 13.756 8.88899 12.612C9.88633 11.468 10.385 9.884 10.385 7.86C10.385 6.34933 9.95966 5.07333 9.10899 4.032C8.27299 2.99067 7.08499 2.47 5.54499 2.47ZM15.3209 16V0.797999H24.2529L23.8349 2.47H17.2129V7.486H23.4609V9.092H17.2129V14.328H24.6709V16H15.3209ZM27.0943 16V0.797999H28.9863V14.328H35.4323V16H27.0943ZM46.3 16H44.034L39.502 3.416H39.392L38.974 16H37.082L37.676 0.819999H40.514L45.244 13.954H45.332L50.062 0.819999H52.9L53.494 16H51.382L50.964 3.416H50.854L46.3 16ZM66.4243 16L64.6863 11.05H58.9443L57.2063 16H55.2483L60.7483 0.797999H63.0143L68.5143 16H66.4243ZM64.1363 9.444L62.2223 3.966L61.8703 2.734H61.7823L61.4303 3.966L59.5163 9.444H64.1363ZM72.2774 9.818V16H70.3854V0.797999H74.3894C75.8854 0.797999 77.1247 1.20133 78.1074 2.008C79.09 2.8 79.5814 3.90733 79.5814 5.33C79.5814 6.35667 79.31 7.22933 78.7674 7.948C78.2247 8.652 77.4914 9.16533 76.5674 9.488C77.33 10.368 78.7454 12.5387 80.8134 16H78.5254C76.4867 12.48 75.196 10.4193 74.6534 9.818H72.2774ZM72.2774 8.19H74.3894C75.4014 8.19 76.1787 7.94067 76.7214 7.442C77.2787 6.94333 77.5574 6.23933 77.5574 5.33C77.5574 4.42067 77.2787 3.71667 76.7214 3.218C76.1787 2.71933 75.4014 2.47 74.3894 2.47H72.2774V8.19ZM82.4596 16V0.797999H91.3916L90.9736 2.47H84.3516V7.486H90.5996V9.092H84.3516V14.328H91.8096V16H82.4596Z" fill="black"/>
</svg>
