<svg width="111" height="16" viewBox="0 0 111 16" fill="none" xmlns="http://www.w3.org/2000/svg">
<path d="M4.38867 16H1.12305L1.14453 14.3135H4.38867C5.50586 14.3135 6.43685 14.0807 7.18164 13.6152C7.92643 13.1426 8.48503 12.4837 8.85742 11.6387C9.23698 10.7865 9.42676 9.79102 9.42676 8.65234V7.69629C9.42676 6.50033 9.23698 5.4834 8.85742 4.64551C8.47786 3.80046 7.92643 3.15951 7.20312 2.72266C6.48698 2.27865 5.61328 2.05664 4.58203 2.05664H1.05859V0.359375H4.58203C5.94987 0.359375 7.14941 0.660156 8.18066 1.26172C9.21908 1.85612 10.0283 2.70475 10.6084 3.80762C11.1885 4.90332 11.4785 6.20671 11.4785 7.71777V8.65234C11.4785 10.1634 11.1885 11.4668 10.6084 12.5625C10.0283 13.6582 9.20833 14.5068 8.14844 15.1084C7.08854 15.7028 5.83529 16 4.38867 16ZM2.22949 0.359375V16H0.15625V0.359375H2.22949ZM24.5303 14.3135V16H16.248V14.3135H24.5303ZM16.667 0.359375V16H14.5938V0.359375H16.667ZM23.4346 7.08398V8.77051H16.248V7.08398H23.4346ZM24.4229 0.359375V2.05664H16.248V0.359375H24.4229ZM36.583 14.3135V16H28.7627V14.3135H36.583ZM29.1709 0.359375V16H27.0977V0.359375H29.1709ZM39.6123 0.359375H41.6211L46.7451 13.1104L51.8584 0.359375H53.8779L47.5186 16H45.9502L39.6123 0.359375ZM38.957 0.359375H40.7295L41.0195 9.89844V16H38.957V0.359375ZM52.75 0.359375H54.5225V16H52.46V9.89844L52.75 0.359375ZM64.1475 1.74512L58.9697 16H56.8535L62.8154 0.359375H64.1797L64.1475 1.74512ZM68.4873 16L63.2988 1.74512L63.2666 0.359375H64.6309L70.6143 16H68.4873ZM68.2188 10.21V11.9072H59.4316V10.21H68.2188ZM72.709 0.359375H77.8867C79.0612 0.359375 80.0531 0.538411 80.8623 0.896484C81.6787 1.25456 82.2982 1.78451 82.7207 2.48633C83.1504 3.18099 83.3652 4.03678 83.3652 5.05371C83.3652 5.76986 83.2184 6.42513 82.9248 7.01953C82.6383 7.60677 82.223 8.10807 81.6787 8.52344C81.1416 8.93164 80.4971 9.236 79.7451 9.43652L79.165 9.66211H74.2988L74.2773 7.97559H77.9512C78.696 7.97559 79.3154 7.84668 79.8096 7.58887C80.3037 7.32389 80.6761 6.9694 80.9268 6.52539C81.1774 6.08138 81.3027 5.59082 81.3027 5.05371C81.3027 4.15137 81.0306 3.42806 80.4863 2.88379C79.9492 2.33236 79.0827 2.05664 77.8867 2.05664H74.7822V16H72.709V0.359375ZM81.8506 16L78.0479 8.91016L80.207 8.89941L84.0635 15.8711V16H81.8506ZM96.2021 14.3135V16H87.9199V14.3135H96.2021ZM88.3389 0.359375V16H86.2656V0.359375H88.3389ZM95.1064 7.08398V8.77051H87.9199V7.08398H95.1064ZM96.0947 0.359375V2.05664H87.9199V0.359375H96.0947ZM108.985 7.08398V8.77051H100.521V7.08398H108.985ZM100.843 0.359375V16H98.7695V0.359375H100.843ZM110.79 0.359375V16H108.728V0.359375H110.79Z" fill="black"/>
</svg>
