<svg width="121" height="18" viewBox="0 0 121 18" fill="none" xmlns="http://www.w3.org/2000/svg">
<path d="M4.74219 18H1.17969L1.20312 16.1602H4.74219C5.96094 16.1602 6.97656 15.9062 7.78906 15.3984C8.60156 14.8828 9.21094 14.1641 9.61719 13.2422C10.0312 12.3125 10.2383 11.2266 10.2383 9.98438V8.94141C10.2383 7.63672 10.0312 6.52734 9.61719 5.61328C9.20312 4.69141 8.60156 3.99219 7.8125 3.51562C7.03125 3.03125 6.07812 2.78906 4.95312 2.78906H1.10938V0.9375H4.95312C6.44531 0.9375 7.75391 1.26562 8.87891 1.92188C10.0117 2.57031 10.8945 3.49609 11.5273 4.69922C12.1602 5.89453 12.4766 7.31641 12.4766 8.96484V9.98438C12.4766 11.6328 12.1602 13.0547 11.5273 14.25C10.8945 15.4453 10 16.3711 8.84375 17.0273C7.6875 17.6758 6.32031 18 4.74219 18ZM2.38672 0.9375V18H0.125V0.9375H2.38672ZM26.7148 16.1602V18H17.6797V16.1602H26.7148ZM18.1367 0.9375V18H15.875V0.9375H18.1367ZM25.5195 8.27344V10.1133H17.6797V8.27344H25.5195ZM26.5977 0.9375V2.78906H17.6797V0.9375H26.5977ZM39.8633 16.1602V18H31.332V16.1602H39.8633ZM31.7773 0.9375V18H29.5156V0.9375H31.7773ZM43.168 0.9375H45.3594L50.9492 14.8477L56.5273 0.9375H58.7305L51.793 18H50.082L43.168 0.9375ZM42.4531 0.9375H44.3867L44.7031 11.3438V18H42.4531V0.9375ZM57.5 0.9375H59.4336V18H57.1836V11.3438L57.5 0.9375ZM69.9336 2.44922L64.2852 18H61.9766L68.4805 0.9375H69.9688L69.9336 2.44922ZM74.668 18L69.0078 2.44922L68.9727 0.9375H70.4609L76.9883 18H74.668ZM74.375 11.6836V13.5352H64.7891V11.6836H74.375ZM79.2734 0.9375H84.9219C86.2031 0.9375 87.2852 1.13281 88.168 1.52344C89.0586 1.91406 89.7344 2.49219 90.1953 3.25781C90.6641 4.01562 90.8984 4.94922 90.8984 6.05859C90.8984 6.83984 90.7383 7.55469 90.418 8.20312C90.1055 8.84375 89.6523 9.39062 89.0586 9.84375C88.4727 10.2891 87.7695 10.6211 86.9492 10.8398L86.3164 11.0859H81.0078L80.9844 9.24609H84.9922C85.8047 9.24609 86.4805 9.10547 87.0195 8.82422C87.5586 8.53516 87.9648 8.14844 88.2383 7.66406C88.5117 7.17969 88.6484 6.64453 88.6484 6.05859C88.6484 5.07422 88.3516 4.28516 87.7578 3.69141C87.1719 3.08984 86.2266 2.78906 84.9219 2.78906H81.5352V18H79.2734V0.9375ZM89.2461 18L85.0977 10.2656L87.4531 10.2539L91.6602 17.8594V18H89.2461ZM104.902 16.1602V18H95.8672V16.1602H104.902ZM96.3242 0.9375V18H94.0625V0.9375H96.3242ZM103.707 8.27344V10.1133H95.8672V8.27344H103.707ZM104.785 0.9375V2.78906H95.8672V0.9375H104.785ZM118.848 8.27344V10.1133H109.613V8.27344H118.848ZM109.965 0.9375V18H107.703V0.9375H109.965ZM120.816 0.9375V18H118.566V0.9375H120.816Z" fill="black"/>
</svg>
