<svg width="60" height="94" viewBox="0 0 60 94" fill="none" xmlns="http://www.w3.org/2000/svg">
<rect width="60" height="60" rx="10" fill="#B2FFEF"/>
<path d="M3.7614 75H2.08495L2.09598 74.1342H3.7614C4.33492 74.1342 4.81285 74.0147 5.1952 73.7758C5.57755 73.5331 5.86431 73.1949 6.05548 72.7611C6.25033 72.3236 6.34776 71.8125 6.34776 71.228V70.7372C6.34776 70.1232 6.25033 69.6012 6.05548 69.171C5.86063 68.7372 5.57755 68.4082 5.20623 68.1839C4.83859 67.956 4.39006 67.842 3.86066 67.842H2.05186V66.9707H3.86066C4.56286 66.9707 5.17866 67.1251 5.70806 67.4339C6.24114 67.7391 6.65658 68.1747 6.95437 68.7409C7.25216 69.3034 7.40105 69.9725 7.40105 70.7482V71.228C7.40105 72.0037 7.25216 72.6728 6.95437 73.2353C6.65658 73.7978 6.23563 74.2335 5.69152 74.5423C5.14741 74.8474 4.50403 75 3.7614 75ZM2.65296 66.9707V75H1.58863V66.9707H2.65296ZM14.1013 74.1342V75H9.84955V74.1342H14.1013ZM10.0646 66.9707V75H9.00029V66.9707H10.0646ZM13.5388 70.4229V71.2887H9.84955V70.4229H13.5388ZM14.0462 66.9707V67.842H9.84955V66.9707H14.0462ZM20.2887 74.1342V75H16.2741V74.1342H20.2887ZM16.4836 66.9707V75H15.4193V66.9707H16.4836ZM21.8439 66.9707H22.8751L25.5056 73.5166L28.1305 66.9707H29.1673L25.9026 75H25.0975L21.8439 66.9707ZM21.5075 66.9707H22.4174L22.5663 71.8677V75H21.5075V66.9707ZM28.5883 66.9707H29.4982V75H28.4394V71.8677L28.5883 66.9707ZM34.4393 67.6821L31.7812 75H30.6948L33.7555 66.9707H34.4558L34.4393 67.6821ZM36.6672 75L34.0036 67.6821L33.9871 66.9707H34.6874L37.7591 75H36.6672ZM36.5293 72.0276V72.8989H32.0184V72.0276H36.5293ZM38.8344 66.9707H41.4925C42.0954 66.9707 42.6046 67.0626 43.02 67.2464C43.4392 67.4303 43.7572 67.7023 43.9741 68.0626C44.1947 68.4192 44.3049 68.8585 44.3049 69.3806C44.3049 69.7482 44.2296 70.0846 44.0788 70.3898C43.9318 70.6912 43.7186 70.9486 43.4392 71.1618C43.1634 71.3714 42.8325 71.5276 42.4465 71.6306L42.1487 71.7464H39.6506L39.6396 70.8806H41.5256C41.9079 70.8806 42.2259 70.8144 42.4796 70.682C42.7333 70.546 42.9245 70.364 43.0531 70.1361C43.1818 69.9082 43.2461 69.6563 43.2461 69.3806C43.2461 68.9174 43.1064 68.546 42.827 68.2666C42.5513 67.9836 42.1065 67.842 41.4925 67.842H39.8988V75H38.8344V66.9707ZM43.5274 75L41.5752 71.3603L42.6836 71.3548L44.6634 74.9338V75H43.5274ZM50.8949 74.1342V75H46.6431V74.1342H50.8949ZM46.8582 66.9707V75H45.7939V66.9707H46.8582ZM50.3324 70.4229V71.2887H46.6431V70.4229H50.3324ZM50.8398 66.9707V67.842H46.6431V66.9707H50.8398ZM57.4573 70.4229V71.2887H53.1118V70.4229H57.4573ZM53.2772 66.9707V75H52.2129V66.9707H53.2772ZM58.3838 66.9707V75H57.325V66.9707H58.3838Z" fill="black"/>
<path d="M4.95817 86.7844C4.95817 86.9735 4.90547 87.1253 4.80009 87.24C4.6947 87.3516 4.53972 87.4074 4.33514 87.4074C4.26075 87.4074 4.16002 87.3888 4.03293 87.3516C3.90895 87.3113 3.76016 87.2555 3.58659 87.1842C3.41301 87.113 3.21308 87.0277 2.98681 86.9285C3.0364 86.7642 3.0922 86.6062 3.15419 86.4543C3.21928 86.3024 3.29212 86.1676 3.37271 86.0498C3.4564 85.9289 3.55249 85.8344 3.66098 85.7662C3.77256 85.6949 3.9012 85.6592 4.04688 85.6592C4.22356 85.6592 4.38009 85.7088 4.51647 85.808C4.65595 85.9072 4.76444 86.042 4.84193 86.2125C4.91942 86.3799 4.95817 86.5705 4.95817 86.7844ZM5.71137 86.3892C5.67108 86.0916 5.57034 85.8266 5.40916 85.5941C5.25108 85.3586 5.05271 85.1741 4.81403 85.0409C4.57536 84.9045 4.31345 84.8363 4.02828 84.8363C3.78651 84.8363 3.57109 84.8812 3.38201 84.9711C3.19293 85.0579 3.02555 85.1865 2.87987 85.357C2.73419 85.5244 2.60556 85.7274 2.49397 85.9661C2.38238 86.2048 2.28319 86.476 2.19641 86.7797C1.91434 86.8324 1.69272 86.9425 1.53154 87.1099C1.37036 87.2741 1.25102 87.4834 1.17353 87.7375C1.09914 87.9886 1.0511 88.2707 1.0294 88.5837C1.0108 88.8968 1.0015 89.2269 1.0015 89.574C1.0015 89.8282 1.00615 90.0793 1.01545 90.3273C1.02475 90.5783 1.03715 90.8464 1.05265 91.1316H1.85235C1.83995 90.927 1.82755 90.7442 1.81515 90.583C1.80585 90.4218 1.7981 90.2575 1.79191 90.0901C1.78881 89.9259 1.78726 89.7383 1.78726 89.5276C1.78726 89.1711 1.795 88.872 1.8105 88.6302C1.826 88.3915 1.85545 88.2025 1.89884 88.063C1.94224 87.9204 2.00423 87.8181 2.08482 87.7561C2.16541 87.6941 2.2708 87.6631 2.40098 87.6631C2.49707 87.6631 2.6164 87.6926 2.75899 87.7515C2.90157 87.8104 3.0581 87.8786 3.22858 87.956C3.40216 88.0304 3.58194 88.0971 3.76791 88.156C3.95699 88.2149 4.14297 88.2443 4.32584 88.2443C4.62961 88.2443 4.87913 88.1932 5.0744 88.0909C5.26968 87.9886 5.42001 87.8383 5.5254 87.6399C5.64628 87.8321 5.79816 87.9684 5.98104 88.049C6.16702 88.1296 6.35455 88.1699 6.54362 88.1699H6.66451V87.3237H6.54362C6.40724 87.3237 6.28016 87.2834 6.16237 87.2028C6.04768 87.1192 5.95005 87.0076 5.86946 86.8681C5.78887 86.7255 5.73617 86.5659 5.71137 86.3892ZM6.47388 87.3237V88.1699H6.84584V87.3237H6.47388ZM8.15233 88.9092L7.50606 89.5555L8.15233 90.211L8.80325 89.5555L8.15233 88.9092ZM6.60872 88.9092L5.96244 89.5555L6.60872 90.211L7.25964 89.5555L6.60872 88.9092ZM8.23137 85.3291C8.24376 85.4624 8.25306 85.5957 8.25926 85.729C8.26856 85.8623 8.27321 86.0033 8.27321 86.1521C8.27321 86.5178 8.18797 86.8045 8.01749 87.0122C7.85011 87.2199 7.5696 87.3237 7.17595 87.3237H6.7389V88.1699H7.17595C7.47351 88.1699 7.75867 88.1126 8.03144 87.9979C8.30421 87.8832 8.52428 87.7034 8.69166 87.4586C8.77535 87.6104 8.87609 87.7391 8.99387 87.8445C9.11166 87.9498 9.25424 88.0304 9.42162 88.0862C9.589 88.142 9.78738 88.1699 10.0167 88.1699H10.119V87.3237H10.026C9.82767 87.3237 9.66029 87.2819 9.52391 87.1982C9.39062 87.1145 9.28679 86.9983 9.2124 86.8495C9.13801 86.6976 9.09461 86.5225 9.08221 86.3241L9.00782 85.2361L8.23137 85.3291ZM14.178 82.0094L13.5503 82.6371L14.178 83.2648L14.8057 82.6371L14.178 82.0094ZM14.973 83.1857L14.3454 83.8134L14.973 84.4411L15.6007 83.8134L14.973 83.1857ZM13.3829 83.1857L12.7553 83.8134L13.3829 84.4411L14.0106 83.8134L13.3829 83.1857ZM13.1365 88.1699C13.3845 88.1699 13.6263 88.1141 13.8618 88.0025C14.0974 87.891 14.302 87.7096 14.4756 87.4586C14.5902 87.6848 14.7421 87.86 14.9312 87.9839C15.1234 88.1079 15.3667 88.1699 15.6612 88.1699C16.0269 88.1668 16.3167 88.0754 16.5306 87.8956C16.7445 87.7127 16.8979 87.4694 16.9909 87.1656C17.0839 86.8588 17.1304 86.5194 17.1304 86.1474C17.1304 85.9211 17.1149 85.6902 17.0839 85.4547C17.0529 85.2191 17.0002 84.9789 16.9258 84.734L16.1307 84.9479C16.202 85.202 16.2547 85.4345 16.2888 85.6453C16.3229 85.8561 16.34 86.0482 16.34 86.2218C16.34 86.4295 16.3136 86.617 16.2609 86.7844C16.2113 86.9487 16.1354 87.0804 16.0331 87.1796C15.9308 87.2757 15.8037 87.3237 15.6519 87.3237C15.4814 87.3237 15.3388 87.2757 15.2241 87.1796C15.1125 87.0835 15.0273 86.9595 14.9684 86.8076C14.9126 86.6558 14.8785 86.4961 14.8661 86.3287L14.7917 85.3803L14.0153 85.4779C14.0277 85.6081 14.037 85.7166 14.0432 85.8034C14.0494 85.8871 14.054 85.9599 14.0571 86.0219C14.0602 86.0808 14.0618 86.1381 14.0618 86.1939C14.0618 86.5256 13.9905 86.7968 13.8479 87.0076C13.7084 87.2183 13.4744 87.3237 13.1458 87.3237C12.9629 87.3237 12.8095 87.2772 12.6855 87.1842C12.5615 87.0913 12.4654 86.9688 12.3973 86.8169C12.3322 86.6651 12.2934 86.5023 12.281 86.3287L12.2066 85.3803L11.4302 85.4779C11.4426 85.6081 11.4519 85.7166 11.4581 85.8034C11.4643 85.8902 11.4689 85.963 11.472 86.0219C11.4751 86.0808 11.4767 86.1381 11.4767 86.1939C11.4767 86.5845 11.3775 86.8712 11.1791 87.0541C10.9807 87.2338 10.6832 87.3237 10.2864 87.3237H9.95166V88.1699H10.2771C10.6956 88.1699 11.0257 88.1095 11.2674 87.9886C11.5092 87.8646 11.7029 87.6879 11.8486 87.4586C11.9633 87.6879 12.1167 87.8646 12.3089 87.9886C12.5042 88.1095 12.7801 88.1699 13.1365 88.1699ZM19.6225 84.7247C19.3621 84.7247 19.1343 84.7836 18.939 84.9014C18.7437 85.0192 18.5794 85.1772 18.4462 85.3756C18.316 85.5709 18.2183 85.7879 18.1533 86.0265C18.0882 86.2652 18.0556 86.5039 18.0556 86.7425C18.0556 87.2199 18.2013 87.5779 18.4927 87.8166C18.7871 88.0521 19.2288 88.1699 19.8177 88.1699H20.5524C20.478 88.4737 20.3369 88.7403 20.1293 88.9696C19.9247 89.199 19.6535 89.3927 19.3156 89.5508C18.9809 89.7089 18.5794 89.8329 18.1114 89.9228L18.3857 90.662C19.0459 90.5349 19.576 90.3428 19.9758 90.0855C20.3757 89.8313 20.6763 89.5369 20.8778 89.2021C21.0824 88.8704 21.2188 88.5264 21.287 88.1699H21.9193V87.3237H21.3614C21.3552 86.9053 21.3087 86.5349 21.2219 86.2125C21.1382 85.8902 21.0189 85.6189 20.8639 85.3989C20.7089 85.1757 20.526 85.0083 20.3152 84.8967C20.1076 84.782 19.8766 84.7247 19.6225 84.7247ZM19.7713 87.3237C19.4427 87.3237 19.204 87.2772 19.0552 87.1842C18.9096 87.0882 18.8367 86.9316 18.8367 86.7147C18.8367 86.5752 18.8584 86.4155 18.9018 86.2358C18.9483 86.056 19.0273 85.8994 19.1389 85.7662C19.2536 85.6298 19.4101 85.5616 19.6085 85.5616C19.7573 85.5616 19.889 85.5972 20.0037 85.6685C20.1184 85.7398 20.216 85.8483 20.2966 85.994C20.3772 86.1397 20.4423 86.3241 20.4919 86.5473C20.5415 86.7673 20.5756 87.0262 20.5942 87.3237H19.7713ZM21.738 87.3237V88.1699H22.5981V87.3237H21.738ZM24.0069 85.3291C24.0193 85.4624 24.0286 85.5957 24.0348 85.729C24.0441 85.8623 24.0487 86.0033 24.0487 86.1521C24.0487 86.5178 23.9635 86.8045 23.793 87.0122C23.6256 87.2199 23.3451 87.3237 22.9515 87.3237H22.5144V88.1699H22.9515C23.249 88.1699 23.5342 88.1126 23.807 87.9979C24.0797 87.8832 24.2998 87.7034 24.4672 87.4586C24.5509 87.6104 24.6516 87.7391 24.7694 87.8445C24.8872 87.9498 25.0298 88.0304 25.1971 88.0862C25.3645 88.142 25.5629 88.1699 25.7923 88.1699H25.8946V87.3237H25.8016C25.6032 87.3237 25.4358 87.2819 25.2994 87.1982C25.1661 87.1145 25.0623 86.9983 24.9879 86.8495C24.9135 86.6976 24.8701 86.5225 24.8577 86.3241L24.7833 85.2361L24.0069 85.3291ZM23.1328 89.9321L22.5051 90.5597L23.1328 91.1874L23.7605 90.5597L23.1328 89.9321ZM23.9278 88.7558L23.3002 89.3834L23.9278 90.0111L24.5555 89.3834L23.9278 88.7558ZM22.3377 88.7558L21.7101 89.3834L22.3377 90.0111L22.9654 89.3834L22.3377 88.7558ZM25.7086 87.3237V88.1699H25.9317V87.3237H25.7086ZM26.6664 88.8813L25.9922 89.5555L26.6664 90.2296L27.3405 89.5555L26.6664 88.8813ZM26.3269 88.1699C26.8167 88.1699 27.1933 88.0862 27.4568 87.9189C27.7202 87.7515 27.9016 87.5237 28.0007 87.2354C28.103 86.944 28.1542 86.6124 28.1542 86.2404C28.1542 86.0141 28.1387 85.76 28.1077 85.4779C28.0767 85.1958 28.024 84.9324 27.9496 84.6875L27.1545 84.9014C27.2258 85.1555 27.2785 85.4113 27.3126 85.6685C27.3467 85.9258 27.3638 86.1412 27.3638 86.3148C27.3638 86.6248 27.2925 86.8712 27.1499 87.0541C27.0104 87.2338 26.733 87.3237 26.3177 87.3237H25.8155V88.1699H26.3269ZM36.1372 88.1699C36.5092 88.1699 36.8688 88.1451 37.2159 88.0955C37.5631 88.0428 37.873 87.9483 38.1458 87.8119C38.4217 87.6755 38.6386 87.4803 38.7967 87.2261C38.9579 86.9719 39.0385 86.6403 39.0385 86.2311C39.0385 86.1505 39.0307 86.0203 39.0152 85.8406C39.0028 85.6577 38.9812 85.4624 38.9502 85.2547C38.9192 85.044 38.8773 84.858 38.8246 84.6968L38.0296 84.9107C38.0978 85.1648 38.1505 85.4252 38.1876 85.6918C38.2248 85.9583 38.2434 86.1645 38.2434 86.3101C38.2434 86.5581 38.1722 86.7518 38.0296 86.8913C37.887 87.0308 37.7041 87.1315 37.4809 87.1935C37.2609 87.2524 37.0315 87.2896 36.7928 87.3051C36.5541 87.3175 36.3372 87.3237 36.1419 87.3237H35.1469C34.6975 87.3237 34.3038 87.2974 33.966 87.2447C33.6281 87.192 33.346 87.1083 33.1198 86.9936C32.8966 86.8758 32.7277 86.7239 32.613 86.538C32.4983 86.3489 32.441 86.118 32.441 85.8452C32.441 85.7057 32.4565 85.5585 32.4874 85.4035C32.5215 85.2485 32.5634 85.1028 32.613 84.9665L31.8923 84.6968C31.8148 84.8859 31.7513 85.0827 31.7017 85.2873C31.6552 85.4918 31.632 85.7011 31.632 85.9149C31.632 86.3055 31.7048 86.6434 31.8505 86.9285C31.9993 87.2106 32.2193 87.4431 32.5107 87.6259C32.8052 87.8088 33.1709 87.9452 33.608 88.0351C34.0481 88.125 34.5611 88.1699 35.1469 88.1699H36.1372ZM36.1419 83.6088L35.4956 84.2551L36.1419 84.9107L36.7928 84.2551L36.1419 83.6088ZM34.5983 83.6088L33.952 84.2551L34.5983 84.9107L35.2492 84.2551L34.5983 83.6088ZM43.2741 87.3749C43.2741 87.0463 43.24 86.7255 43.1718 86.4124C43.1067 86.0963 43.0029 85.8111 42.8603 85.5569C42.7208 85.3028 42.5411 85.1013 42.321 84.9525C42.104 84.8006 41.8421 84.7247 41.5352 84.7247C41.2749 84.7247 41.0455 84.7836 40.8471 84.9014C40.6518 85.0192 40.4891 85.1772 40.3589 85.3756C40.2287 85.5709 40.1296 85.7879 40.0614 86.0265C39.9963 86.2652 39.9637 86.5039 39.9637 86.7425C39.9637 87.2261 40.1063 87.5872 40.3915 87.8259C40.6797 88.0645 41.1028 88.1839 41.6608 88.1839C41.7786 88.1839 41.9149 88.1699 42.0699 88.142C42.2249 88.1141 42.3613 88.0816 42.4791 88.0444C42.4295 88.3636 42.3008 88.6473 42.0932 88.8952C41.8855 89.1463 41.6065 89.3571 41.2563 89.5276C40.9091 89.698 40.4969 89.8298 40.0195 89.9228L40.2938 90.662C40.9541 90.5349 41.5042 90.3273 41.9444 90.039C42.3876 89.7538 42.7193 89.3881 42.9394 88.9417C43.1625 88.4985 43.2741 87.9762 43.2741 87.3749ZM41.684 87.3423C41.3679 87.3423 41.1323 87.2943 40.9773 87.1982C40.8223 87.1021 40.7448 86.9409 40.7448 86.7147C40.7448 86.5752 40.7665 86.4155 40.8099 86.2358C40.8564 86.056 40.9355 85.8994 41.047 85.7662C41.1617 85.6298 41.3214 85.5616 41.5259 85.5616C41.6747 85.5616 41.8049 85.5988 41.9165 85.6732C42.0312 85.7476 42.1288 85.8576 42.2094 86.0033C42.29 86.1459 42.3535 86.3194 42.4 86.524C42.4496 86.7286 42.4822 86.9611 42.4977 87.2214C42.3644 87.2617 42.228 87.2927 42.0885 87.3144C41.949 87.333 41.8142 87.3423 41.684 87.3423ZM44.4411 81.7212V86.2079C44.4411 86.8867 44.5868 87.3842 44.8782 87.7003C45.1695 88.0134 45.6112 88.1699 46.2033 88.1699H46.3149V87.3237H46.2033C45.8778 87.3237 45.6345 87.2478 45.4733 87.0959C45.3152 86.944 45.2362 86.6496 45.2362 86.2125V81.7212H44.4411ZM48.6535 82.1954L47.9793 82.8696L48.6535 83.5437L49.3277 82.8696L48.6535 82.1954ZM48.7326 85.092C48.8565 85.092 48.9867 85.1385 49.1231 85.2315C49.2595 85.3245 49.3757 85.4407 49.4718 85.5802C49.5679 85.7166 49.6159 85.8499 49.6159 85.98C49.6159 86.1257 49.5756 86.2745 49.4951 86.4264C49.4145 86.5783 49.3075 86.7162 49.1742 86.8402C49.0441 86.9611 48.8999 87.0556 48.7419 87.1238C48.6086 87.0556 48.4753 86.9595 48.342 86.8355C48.2118 86.7116 48.1018 86.5752 48.0119 86.4264C47.9251 86.2776 47.8817 86.1319 47.8817 85.9893C47.8817 85.8499 47.9282 85.7119 48.0212 85.5755C48.1142 85.4361 48.2258 85.3214 48.3559 85.2315C48.4892 85.1385 48.6148 85.092 48.7326 85.092ZM50.4063 85.98C50.4063 85.7848 50.3599 85.5879 50.2669 85.3896C50.177 85.1881 50.053 85.0037 49.8949 84.8363C49.7368 84.6658 49.5571 84.5294 49.3556 84.4271C49.1572 84.3217 48.9495 84.269 48.7326 84.269C48.5249 84.269 48.3219 84.3217 48.1235 84.4271C47.9282 84.5294 47.7515 84.6658 47.5934 84.8363C47.4385 85.0037 47.3145 85.1865 47.2215 85.3849C47.1316 85.5833 47.0867 85.7786 47.0867 85.9707C47.0867 86.1319 47.1115 86.2869 47.161 86.4357C47.2137 86.5845 47.2866 86.7301 47.3796 86.8727C47.4726 87.0122 47.581 87.1548 47.705 87.3005C47.5717 87.3067 47.4509 87.3129 47.3424 87.3191C47.237 87.3222 47.1393 87.3237 47.0495 87.3237C46.9596 87.3237 46.8712 87.3237 46.7844 87.3237H46.1428V88.1699H46.7844C46.9115 88.1699 47.082 88.1606 47.2959 88.142C47.5098 88.1203 47.7422 88.0862 47.9933 88.0397C48.2444 87.9901 48.4892 87.922 48.7279 87.8352C48.9666 87.9189 49.2083 87.9855 49.4532 88.0351C49.7012 88.0847 49.9275 88.1203 50.132 88.142C50.3397 88.1606 50.5024 88.1699 50.6202 88.1699H51.0526V87.3237H50.6063C50.535 87.3237 50.4575 87.3237 50.3738 87.3237C50.2901 87.3237 50.1987 87.3222 50.0995 87.3191C50.0003 87.316 49.8918 87.3113 49.774 87.3051C49.9011 87.1594 50.0111 87.0169 50.1041 86.8774C50.2002 86.7348 50.2746 86.5907 50.3273 86.445C50.38 86.2993 50.4063 86.1443 50.4063 85.98ZM50.8759 87.3237V88.1699H51.2061V87.3237H50.8759ZM52.9217 83.0462L52.2754 83.6925L52.9217 84.3481L53.5726 83.6925L52.9217 83.0462ZM51.3781 83.0462L50.7318 83.6925L51.3781 84.3481L52.029 83.6925L51.3781 83.0462ZM52.5823 85.3291C52.5947 85.4624 52.604 85.5957 52.6102 85.729C52.6195 85.8623 52.6241 86.0033 52.6241 86.1521C52.6241 86.5178 52.5389 86.8045 52.3684 87.0122C52.201 87.2199 51.9205 87.3237 51.5269 87.3237H51.0898V88.1699H51.5269C51.8244 88.1699 52.1096 88.1126 52.3824 87.9979C52.6551 87.8832 52.8752 87.7034 53.0426 87.4586C53.1263 87.6104 53.227 87.7391 53.3448 87.8445C53.4626 87.9498 53.6052 88.0304 53.7725 88.0862C53.9399 88.142 54.1383 88.1699 54.3677 88.1699H54.47V87.3237H54.377C54.1786 87.3237 54.0112 87.2819 53.8748 87.1982C53.7415 87.1145 53.6377 86.9983 53.5633 86.8495C53.4889 86.6976 53.4455 86.5225 53.4331 86.3241L53.3587 85.2361L52.5823 85.3291ZM57.3108 85.6592C57.5928 85.6592 57.8129 85.7631 57.971 85.9707C58.1322 86.1753 58.2127 86.4388 58.2127 86.7611C58.2127 86.9874 58.1554 87.1594 58.0407 87.2772C57.9291 87.395 57.7571 87.4539 57.5246 87.4539C57.4347 87.4539 57.3309 87.4338 57.2131 87.3935C57.0984 87.3532 56.976 87.2912 56.8458 87.2075C56.7528 87.1486 56.6583 87.0804 56.5622 87.0029C56.4661 86.9223 56.3685 86.8309 56.2693 86.7286C56.3499 86.5519 56.4413 86.3814 56.5436 86.2172C56.6459 86.0529 56.7606 85.9196 56.8877 85.8173C57.0147 85.7119 57.1558 85.6592 57.3108 85.6592ZM57.5339 88.2769C57.8439 88.2769 58.1074 88.2149 58.3243 88.0909C58.5444 87.9638 58.7118 87.7825 58.8265 87.5469C58.9412 87.3082 58.9985 87.0215 58.9985 86.6868C58.9985 86.3427 58.9272 86.0312 58.7846 85.7522C58.6451 85.4733 58.4468 85.2516 58.1895 85.0873C57.9353 84.92 57.6362 84.8363 57.2922 84.8363C57.007 84.8363 56.7668 84.8967 56.5715 85.0176C56.3793 85.1354 56.215 85.2888 56.0787 85.4779C55.9423 85.667 55.8183 85.8685 55.7067 86.0823C55.5982 86.2931 55.4882 86.493 55.3766 86.6821C55.265 86.8712 55.1379 87.0262 54.9953 87.147C54.8528 87.2648 54.6776 87.3237 54.47 87.3237H54.2979V88.1699H54.4932C54.7195 88.1699 54.9086 88.1436 55.0604 88.0909C55.2123 88.0351 55.3502 87.9545 55.4742 87.8491C55.5982 87.7437 55.7268 87.6151 55.8601 87.4632C56.0492 87.643 56.2321 87.7933 56.4088 87.9142C56.5854 88.0351 56.7652 88.125 56.9481 88.1839C57.131 88.2459 57.3263 88.2769 57.5339 88.2769Z" fill="black"/>
<path d="M10 10H42C46.4183 10 50 13.5817 50 18V42C50 46.4183 46.4183 50 42 50H10V10Z" fill="black"/>
<rect x="18" y="18" width="24" height="24" fill="#B2FFEF"/>
</svg>
