<svg width="60" height="91" viewBox="0 0 60 91" fill="none" xmlns="http://www.w3.org/2000/svg">
<rect width="60" height="60" rx="10" fill="#B2FFEF"/>
<path d="M3.7614 72H2.08495L2.09598 71.1342H3.7614C4.33492 71.1342 4.81285 71.0147 5.1952 70.7758C5.57755 70.5331 5.86431 70.1949 6.05548 69.7611C6.25033 69.3236 6.34776 68.8125 6.34776 68.228V67.7372C6.34776 67.1232 6.25033 66.6012 6.05548 66.171C5.86063 65.7372 5.57755 65.4082 5.20623 65.1839C4.83859 64.956 4.39006 64.842 3.86066 64.842H2.05186V63.9707H3.86066C4.56286 63.9707 5.17866 64.1251 5.70806 64.4339C6.24114 64.7391 6.65658 65.1747 6.95437 65.7409C7.25216 66.3034 7.40105 66.9725 7.40105 67.7482V68.228C7.40105 69.0037 7.25216 69.6728 6.95437 70.2353C6.65658 70.7978 6.23563 71.2335 5.69152 71.5423C5.14741 71.8474 4.50403 72 3.7614 72ZM2.65296 63.9707V72H1.58863V63.9707H2.65296ZM14.1013 71.1342V72H9.84955V71.1342H14.1013ZM10.0646 63.9707V72H9.00029V63.9707H10.0646ZM13.5388 67.4229V68.2887H9.84955V67.4229H13.5388ZM14.0462 63.9707V64.842H9.84955V63.9707H14.0462ZM20.2887 71.1342V72H16.2741V71.1342H20.2887ZM16.4836 63.9707V72H15.4193V63.9707H16.4836ZM21.8439 63.9707H22.8751L25.5056 70.5166L28.1305 63.9707H29.1673L25.9026 72H25.0975L21.8439 63.9707ZM21.5075 63.9707H22.4174L22.5663 68.8677V72H21.5075V63.9707ZM28.5883 63.9707H29.4982V72H28.4394V68.8677L28.5883 63.9707ZM34.4393 64.6821L31.7812 72H30.6948L33.7555 63.9707H34.4558L34.4393 64.6821ZM36.6672 72L34.0036 64.6821L33.9871 63.9707H34.6874L37.7591 72H36.6672ZM36.5293 69.0276V69.8989H32.0184V69.0276H36.5293ZM38.8344 63.9707H41.4925C42.0954 63.9707 42.6046 64.0626 43.02 64.2464C43.4392 64.4303 43.7572 64.7023 43.9741 65.0626C44.1947 65.4192 44.3049 65.8585 44.3049 66.3806C44.3049 66.7482 44.2296 67.0846 44.0788 67.3898C43.9318 67.6912 43.7186 67.9486 43.4392 68.1618C43.1634 68.3714 42.8325 68.5276 42.4465 68.6306L42.1487 68.7464H39.6506L39.6396 67.8806H41.5256C41.9079 67.8806 42.2259 67.8144 42.4796 67.682C42.7333 67.546 42.9245 67.364 43.0531 67.1361C43.1818 66.9082 43.2461 66.6563 43.2461 66.3806C43.2461 65.9174 43.1064 65.546 42.827 65.2666C42.5513 64.9836 42.1065 64.842 41.4925 64.842H39.8988V72H38.8344V63.9707ZM43.5274 72L41.5752 68.3603L42.6836 68.3548L44.6634 71.9338V72H43.5274ZM50.8949 71.1342V72H46.6431V71.1342H50.8949ZM46.8582 63.9707V72H45.7939V63.9707H46.8582ZM50.3324 67.4229V68.2887H46.6431V67.4229H50.3324ZM50.8398 63.9707V64.842H46.6431V63.9707H50.8398ZM57.4573 67.4229V68.2887H53.1118V67.4229H57.4573ZM53.2772 63.9707V72H52.2129V63.9707H53.2772ZM58.3838 63.9707V72H57.325V63.9707H58.3838Z" fill="black"/>
<path d="M4.95817 83.7844C4.95817 83.9735 4.90547 84.1253 4.80009 84.24C4.6947 84.3516 4.53972 84.4074 4.33514 84.4074C4.26075 84.4074 4.16002 84.3888 4.03293 84.3516C3.90895 84.3113 3.76016 84.2555 3.58659 84.1842C3.41301 84.113 3.21308 84.0277 2.98681 83.9285C3.0364 83.7642 3.0922 83.6062 3.15419 83.4543C3.21928 83.3024 3.29212 83.1676 3.37271 83.0498C3.4564 82.9289 3.55249 82.8344 3.66098 82.7662C3.77256 82.6949 3.9012 82.6592 4.04688 82.6592C4.22356 82.6592 4.38009 82.7088 4.51647 82.808C4.65595 82.9072 4.76444 83.042 4.84193 83.2125C4.91942 83.3799 4.95817 83.5705 4.95817 83.7844ZM5.71137 83.3892C5.67108 83.0916 5.57034 82.8266 5.40916 82.5941C5.25108 82.3586 5.05271 82.1741 4.81403 82.0409C4.57536 81.9045 4.31345 81.8363 4.02828 81.8363C3.78651 81.8363 3.57109 81.8812 3.38201 81.9711C3.19293 82.0579 3.02555 82.1865 2.87987 82.357C2.73419 82.5244 2.60556 82.7274 2.49397 82.9661C2.38238 83.2048 2.28319 83.476 2.19641 83.7797C1.91434 83.8324 1.69272 83.9425 1.53154 84.1099C1.37036 84.2741 1.25102 84.4834 1.17353 84.7375C1.09914 84.9886 1.0511 85.2707 1.0294 85.5837C1.0108 85.8968 1.0015 86.2269 1.0015 86.574C1.0015 86.8282 1.00615 87.0793 1.01545 87.3273C1.02475 87.5783 1.03715 87.8464 1.05265 88.1316H1.85235C1.83995 87.927 1.82755 87.7442 1.81515 87.583C1.80585 87.4218 1.7981 87.2575 1.79191 87.0901C1.78881 86.9259 1.78726 86.7383 1.78726 86.5276C1.78726 86.1711 1.795 85.872 1.8105 85.6302C1.826 85.3915 1.85545 85.2025 1.89884 85.063C1.94224 84.9204 2.00423 84.8181 2.08482 84.7561C2.16541 84.6941 2.2708 84.6631 2.40098 84.6631C2.49707 84.6631 2.6164 84.6926 2.75899 84.7515C2.90157 84.8104 3.0581 84.8786 3.22858 84.956C3.40216 85.0304 3.58194 85.0971 3.76791 85.156C3.95699 85.2149 4.14297 85.2443 4.32584 85.2443C4.62961 85.2443 4.87913 85.1932 5.0744 85.0909C5.26968 84.9886 5.42001 84.8383 5.5254 84.6399C5.64628 84.8321 5.79816 84.9684 5.98104 85.049C6.16702 85.1296 6.35455 85.1699 6.54362 85.1699H6.66451V84.3237H6.54362C6.40724 84.3237 6.28016 84.2834 6.16237 84.2028C6.04768 84.1192 5.95005 84.0076 5.86946 83.8681C5.78887 83.7255 5.73617 83.5659 5.71137 83.3892ZM6.47388 84.3237V85.1699H6.84584V84.3237H6.47388ZM8.15233 85.9092L7.50606 86.5555L8.15233 87.211L8.80325 86.5555L8.15233 85.9092ZM6.60872 85.9092L5.96244 86.5555L6.60872 87.211L7.25964 86.5555L6.60872 85.9092ZM8.23137 82.3291C8.24376 82.4624 8.25306 82.5957 8.25926 82.729C8.26856 82.8623 8.27321 83.0033 8.27321 83.1521C8.27321 83.5178 8.18797 83.8045 8.01749 84.0122C7.85011 84.2199 7.5696 84.3237 7.17595 84.3237H6.7389V85.1699H7.17595C7.47351 85.1699 7.75867 85.1126 8.03144 84.9979C8.30421 84.8832 8.52428 84.7034 8.69166 84.4586C8.77535 84.6104 8.87609 84.7391 8.99387 84.8445C9.11166 84.9498 9.25424 85.0304 9.42162 85.0862C9.589 85.142 9.78738 85.1699 10.0167 85.1699H10.119V84.3237H10.026C9.82767 84.3237 9.66029 84.2819 9.52391 84.1982C9.39062 84.1145 9.28679 83.9983 9.2124 83.8495C9.13801 83.6976 9.09461 83.5225 9.08221 83.3241L9.00782 82.2361L8.23137 82.3291ZM14.178 79.0094L13.5503 79.6371L14.178 80.2648L14.8057 79.6371L14.178 79.0094ZM14.973 80.1857L14.3454 80.8134L14.973 81.4411L15.6007 80.8134L14.973 80.1857ZM13.3829 80.1857L12.7553 80.8134L13.3829 81.4411L14.0106 80.8134L13.3829 80.1857ZM13.1365 85.1699C13.3845 85.1699 13.6263 85.1141 13.8618 85.0025C14.0974 84.891 14.302 84.7096 14.4756 84.4586C14.5902 84.6848 14.7421 84.86 14.9312 84.9839C15.1234 85.1079 15.3667 85.1699 15.6612 85.1699C16.0269 85.1668 16.3167 85.0754 16.5306 84.8956C16.7445 84.7127 16.8979 84.4694 16.9909 84.1656C17.0839 83.8588 17.1304 83.5194 17.1304 83.1474C17.1304 82.9211 17.1149 82.6902 17.0839 82.4547C17.0529 82.2191 17.0002 81.9789 16.9258 81.734L16.1307 81.9479C16.202 82.202 16.2547 82.4345 16.2888 82.6453C16.3229 82.8561 16.34 83.0482 16.34 83.2218C16.34 83.4295 16.3136 83.617 16.2609 83.7844C16.2113 83.9487 16.1354 84.0804 16.0331 84.1796C15.9308 84.2757 15.8037 84.3237 15.6519 84.3237C15.4814 84.3237 15.3388 84.2757 15.2241 84.1796C15.1125 84.0835 15.0273 83.9595 14.9684 83.8076C14.9126 83.6558 14.8785 83.4961 14.8661 83.3287L14.7917 82.3803L14.0153 82.4779C14.0277 82.6081 14.037 82.7166 14.0432 82.8034C14.0494 82.8871 14.054 82.9599 14.0571 83.0219C14.0602 83.0808 14.0618 83.1381 14.0618 83.1939C14.0618 83.5256 13.9905 83.7968 13.8479 84.0076C13.7084 84.2183 13.4744 84.3237 13.1458 84.3237C12.9629 84.3237 12.8095 84.2772 12.6855 84.1842C12.5615 84.0913 12.4654 83.9688 12.3973 83.8169C12.3322 83.6651 12.2934 83.5023 12.281 83.3287L12.2066 82.3803L11.4302 82.4779C11.4426 82.6081 11.4519 82.7166 11.4581 82.8034C11.4643 82.8902 11.4689 82.963 11.472 83.0219C11.4751 83.0808 11.4767 83.1381 11.4767 83.1939C11.4767 83.5845 11.3775 83.8712 11.1791 84.0541C10.9807 84.2338 10.6832 84.3237 10.2864 84.3237H9.95166V85.1699H10.2771C10.6956 85.1699 11.0257 85.1095 11.2674 84.9886C11.5092 84.8646 11.7029 84.6879 11.8486 84.4586C11.9633 84.6879 12.1167 84.8646 12.3089 84.9886C12.5042 85.1095 12.7801 85.1699 13.1365 85.1699ZM19.6225 81.7247C19.3621 81.7247 19.1343 81.7836 18.939 81.9014C18.7437 82.0192 18.5794 82.1772 18.4462 82.3756C18.316 82.5709 18.2183 82.7879 18.1533 83.0265C18.0882 83.2652 18.0556 83.5039 18.0556 83.7425C18.0556 84.2199 18.2013 84.5779 18.4927 84.8166C18.7871 85.0521 19.2288 85.1699 19.8177 85.1699H20.5524C20.478 85.4737 20.3369 85.7403 20.1293 85.9696C19.9247 86.199 19.6535 86.3927 19.3156 86.5508C18.9809 86.7089 18.5794 86.8329 18.1114 86.9228L18.3857 87.662C19.0459 87.5349 19.576 87.3428 19.9758 87.0855C20.3757 86.8313 20.6763 86.5369 20.8778 86.2021C21.0824 85.8704 21.2188 85.5264 21.287 85.1699H21.9193V84.3237H21.3614C21.3552 83.9053 21.3087 83.5349 21.2219 83.2125C21.1382 82.8902 21.0189 82.6189 20.8639 82.3989C20.7089 82.1757 20.526 82.0083 20.3152 81.8967C20.1076 81.782 19.8766 81.7247 19.6225 81.7247ZM19.7713 84.3237C19.4427 84.3237 19.204 84.2772 19.0552 84.1842C18.9096 84.0882 18.8367 83.9316 18.8367 83.7147C18.8367 83.5752 18.8584 83.4155 18.9018 83.2358C18.9483 83.056 19.0273 82.8994 19.1389 82.7662C19.2536 82.6298 19.4101 82.5616 19.6085 82.5616C19.7573 82.5616 19.889 82.5972 20.0037 82.6685C20.1184 82.7398 20.216 82.8483 20.2966 82.994C20.3772 83.1397 20.4423 83.3241 20.4919 83.5473C20.5415 83.7673 20.5756 84.0262 20.5942 84.3237H19.7713ZM21.738 84.3237V85.1699H22.5981V84.3237H21.738ZM24.0069 82.3291C24.0193 82.4624 24.0286 82.5957 24.0348 82.729C24.0441 82.8623 24.0487 83.0033 24.0487 83.1521C24.0487 83.5178 23.9635 83.8045 23.793 84.0122C23.6256 84.2199 23.3451 84.3237 22.9515 84.3237H22.5144V85.1699H22.9515C23.249 85.1699 23.5342 85.1126 23.807 84.9979C24.0797 84.8832 24.2998 84.7034 24.4672 84.4586C24.5509 84.6104 24.6516 84.7391 24.7694 84.8445C24.8872 84.9498 25.0298 85.0304 25.1971 85.0862C25.3645 85.142 25.5629 85.1699 25.7923 85.1699H25.8946V84.3237H25.8016C25.6032 84.3237 25.4358 84.2819 25.2994 84.1982C25.1661 84.1145 25.0623 83.9983 24.9879 83.8495C24.9135 83.6976 24.8701 83.5225 24.8577 83.3241L24.7833 82.2361L24.0069 82.3291ZM23.1328 86.9321L22.5051 87.5597L23.1328 88.1874L23.7605 87.5597L23.1328 86.9321ZM23.9278 85.7558L23.3002 86.3834L23.9278 87.0111L24.5555 86.3834L23.9278 85.7558ZM22.3377 85.7558L21.7101 86.3834L22.3377 87.0111L22.9654 86.3834L22.3377 85.7558ZM25.7086 84.3237V85.1699H25.9317V84.3237H25.7086ZM26.6664 85.8813L25.9922 86.5555L26.6664 87.2296L27.3405 86.5555L26.6664 85.8813ZM26.3269 85.1699C26.8167 85.1699 27.1933 85.0862 27.4568 84.9189C27.7202 84.7515 27.9016 84.5237 28.0007 84.2354C28.103 83.944 28.1542 83.6124 28.1542 83.2404C28.1542 83.0141 28.1387 82.76 28.1077 82.4779C28.0767 82.1958 28.024 81.9324 27.9496 81.6875L27.1545 81.9014C27.2258 82.1555 27.2785 82.4113 27.3126 82.6685C27.3467 82.9258 27.3638 83.1412 27.3638 83.3148C27.3638 83.6248 27.2925 83.8712 27.1499 84.0541C27.0104 84.2338 26.733 84.3237 26.3177 84.3237H25.8155V85.1699H26.3269ZM36.1372 85.1699C36.5092 85.1699 36.8688 85.1451 37.2159 85.0955C37.5631 85.0428 37.873 84.9483 38.1458 84.8119C38.4217 84.6755 38.6386 84.4803 38.7967 84.2261C38.9579 83.9719 39.0385 83.6403 39.0385 83.2311C39.0385 83.1505 39.0307 83.0203 39.0152 82.8406C39.0028 82.6577 38.9812 82.4624 38.9502 82.2547C38.9192 82.044 38.8773 81.858 38.8246 81.6968L38.0296 81.9107C38.0978 82.1648 38.1505 82.4252 38.1876 82.6918C38.2248 82.9583 38.2434 83.1645 38.2434 83.3101C38.2434 83.5581 38.1722 83.7518 38.0296 83.8913C37.887 84.0308 37.7041 84.1315 37.4809 84.1935C37.2609 84.2524 37.0315 84.2896 36.7928 84.3051C36.5541 84.3175 36.3372 84.3237 36.1419 84.3237H35.1469C34.6975 84.3237 34.3038 84.2974 33.966 84.2447C33.6281 84.192 33.346 84.1083 33.1198 83.9936C32.8966 83.8758 32.7277 83.7239 32.613 83.538C32.4983 83.3489 32.441 83.118 32.441 82.8452C32.441 82.7057 32.4565 82.5585 32.4874 82.4035C32.5215 82.2485 32.5634 82.1028 32.613 81.9665L31.8923 81.6968C31.8148 81.8859 31.7513 82.0827 31.7017 82.2873C31.6552 82.4918 31.632 82.7011 31.632 82.9149C31.632 83.3055 31.7048 83.6434 31.8505 83.9285C31.9993 84.2106 32.2193 84.4431 32.5107 84.6259C32.8052 84.8088 33.1709 84.9452 33.608 85.0351C34.0481 85.125 34.5611 85.1699 35.1469 85.1699H36.1372ZM36.1419 80.6088L35.4956 81.2551L36.1419 81.9107L36.7928 81.2551L36.1419 80.6088ZM34.5983 80.6088L33.952 81.2551L34.5983 81.9107L35.2492 81.2551L34.5983 80.6088ZM43.2741 84.3749C43.2741 84.0463 43.24 83.7255 43.1718 83.4124C43.1067 83.0963 43.0029 82.8111 42.8603 82.5569C42.7208 82.3028 42.5411 82.1013 42.321 81.9525C42.104 81.8006 41.8421 81.7247 41.5352 81.7247C41.2749 81.7247 41.0455 81.7836 40.8471 81.9014C40.6518 82.0192 40.4891 82.1772 40.3589 82.3756C40.2287 82.5709 40.1296 82.7879 40.0614 83.0265C39.9963 83.2652 39.9637 83.5039 39.9637 83.7425C39.9637 84.2261 40.1063 84.5872 40.3915 84.8259C40.6797 85.0645 41.1028 85.1839 41.6608 85.1839C41.7786 85.1839 41.9149 85.1699 42.0699 85.142C42.2249 85.1141 42.3613 85.0816 42.4791 85.0444C42.4295 85.3636 42.3008 85.6473 42.0932 85.8952C41.8855 86.1463 41.6065 86.3571 41.2563 86.5276C40.9091 86.698 40.4969 86.8298 40.0195 86.9228L40.2938 87.662C40.9541 87.5349 41.5042 87.3273 41.9444 87.039C42.3876 86.7538 42.7193 86.3881 42.9394 85.9417C43.1625 85.4985 43.2741 84.9762 43.2741 84.3749ZM41.684 84.3423C41.3679 84.3423 41.1323 84.2943 40.9773 84.1982C40.8223 84.1021 40.7448 83.9409 40.7448 83.7147C40.7448 83.5752 40.7665 83.4155 40.8099 83.2358C40.8564 83.056 40.9355 82.8994 41.047 82.7662C41.1617 82.6298 41.3214 82.5616 41.5259 82.5616C41.6747 82.5616 41.8049 82.5988 41.9165 82.6732C42.0312 82.7476 42.1288 82.8576 42.2094 83.0033C42.29 83.1459 42.3535 83.3194 42.4 83.524C42.4496 83.7286 42.4822 83.9611 42.4977 84.2214C42.3644 84.2617 42.228 84.2927 42.0885 84.3144C41.949 84.333 41.8142 84.3423 41.684 84.3423ZM44.4411 78.7212V83.2079C44.4411 83.8867 44.5868 84.3842 44.8782 84.7003C45.1695 85.0134 45.6112 85.1699 46.2033 85.1699H46.3149V84.3237H46.2033C45.8778 84.3237 45.6345 84.2478 45.4733 84.0959C45.3152 83.944 45.2362 83.6496 45.2362 83.2125V78.7212H44.4411ZM48.6535 79.1954L47.9793 79.8696L48.6535 80.5437L49.3277 79.8696L48.6535 79.1954ZM48.7326 82.092C48.8565 82.092 48.9867 82.1385 49.1231 82.2315C49.2595 82.3245 49.3757 82.4407 49.4718 82.5802C49.5679 82.7166 49.6159 82.8499 49.6159 82.98C49.6159 83.1257 49.5756 83.2745 49.4951 83.4264C49.4145 83.5783 49.3075 83.7162 49.1742 83.8402C49.0441 83.9611 48.8999 84.0556 48.7419 84.1238C48.6086 84.0556 48.4753 83.9595 48.342 83.8355C48.2118 83.7116 48.1018 83.5752 48.0119 83.4264C47.9251 83.2776 47.8817 83.1319 47.8817 82.9893C47.8817 82.8499 47.9282 82.7119 48.0212 82.5755C48.1142 82.4361 48.2258 82.3214 48.3559 82.2315C48.4892 82.1385 48.6148 82.092 48.7326 82.092ZM50.4063 82.98C50.4063 82.7848 50.3599 82.5879 50.2669 82.3896C50.177 82.1881 50.053 82.0037 49.8949 81.8363C49.7368 81.6658 49.5571 81.5294 49.3556 81.4271C49.1572 81.3217 48.9495 81.269 48.7326 81.269C48.5249 81.269 48.3219 81.3217 48.1235 81.4271C47.9282 81.5294 47.7515 81.6658 47.5934 81.8363C47.4385 82.0037 47.3145 82.1865 47.2215 82.3849C47.1316 82.5833 47.0867 82.7786 47.0867 82.9707C47.0867 83.1319 47.1115 83.2869 47.161 83.4357C47.2137 83.5845 47.2866 83.7301 47.3796 83.8727C47.4726 84.0122 47.581 84.1548 47.705 84.3005C47.5717 84.3067 47.4509 84.3129 47.3424 84.3191C47.237 84.3222 47.1393 84.3237 47.0495 84.3237C46.9596 84.3237 46.8712 84.3237 46.7844 84.3237H46.1428V85.1699H46.7844C46.9115 85.1699 47.082 85.1606 47.2959 85.142C47.5098 85.1203 47.7422 85.0862 47.9933 85.0397C48.2444 84.9901 48.4892 84.922 48.7279 84.8352C48.9666 84.9189 49.2083 84.9855 49.4532 85.0351C49.7012 85.0847 49.9275 85.1203 50.132 85.142C50.3397 85.1606 50.5024 85.1699 50.6202 85.1699H51.0526V84.3237H50.6063C50.535 84.3237 50.4575 84.3237 50.3738 84.3237C50.2901 84.3237 50.1987 84.3222 50.0995 84.3191C50.0003 84.316 49.8918 84.3113 49.774 84.3051C49.9011 84.1594 50.0111 84.0169 50.1041 83.8774C50.2002 83.7348 50.2746 83.5907 50.3273 83.445C50.38 83.2993 50.4063 83.1443 50.4063 82.98ZM50.8759 84.3237V85.1699H51.2061V84.3237H50.8759ZM52.9217 80.0462L52.2754 80.6925L52.9217 81.3481L53.5726 80.6925L52.9217 80.0462ZM51.3781 80.0462L50.7318 80.6925L51.3781 81.3481L52.029 80.6925L51.3781 80.0462ZM52.5823 82.3291C52.5947 82.4624 52.604 82.5957 52.6102 82.729C52.6195 82.8623 52.6241 83.0033 52.6241 83.1521C52.6241 83.5178 52.5389 83.8045 52.3684 84.0122C52.201 84.2199 51.9205 84.3237 51.5269 84.3237H51.0898V85.1699H51.5269C51.8244 85.1699 52.1096 85.1126 52.3824 84.9979C52.6551 84.8832 52.8752 84.7034 53.0426 84.4586C53.1263 84.6104 53.227 84.7391 53.3448 84.8445C53.4626 84.9498 53.6052 85.0304 53.7725 85.0862C53.9399 85.142 54.1383 85.1699 54.3677 85.1699H54.47V84.3237H54.377C54.1786 84.3237 54.0112 84.2819 53.8748 84.1982C53.7415 84.1145 53.6377 83.9983 53.5633 83.8495C53.4889 83.6976 53.4455 83.5225 53.4331 83.3241L53.3587 82.2361L52.5823 82.3291ZM57.3108 82.6592C57.5928 82.6592 57.8129 82.7631 57.971 82.9707C58.1322 83.1753 58.2127 83.4388 58.2127 83.7611C58.2127 83.9874 58.1554 84.1594 58.0407 84.2772C57.9291 84.395 57.7571 84.4539 57.5246 84.4539C57.4347 84.4539 57.3309 84.4338 57.2131 84.3935C57.0984 84.3532 56.976 84.2912 56.8458 84.2075C56.7528 84.1486 56.6583 84.0804 56.5622 84.0029C56.4661 83.9223 56.3685 83.8309 56.2693 83.7286C56.3499 83.5519 56.4413 83.3814 56.5436 83.2172C56.6459 83.0529 56.7606 82.9196 56.8877 82.8173C57.0147 82.7119 57.1558 82.6592 57.3108 82.6592ZM57.5339 85.2769C57.8439 85.2769 58.1074 85.2149 58.3243 85.0909C58.5444 84.9638 58.7118 84.7825 58.8265 84.5469C58.9412 84.3082 58.9985 84.0215 58.9985 83.6868C58.9985 83.3427 58.9272 83.0312 58.7846 82.7522C58.6451 82.4733 58.4468 82.2516 58.1895 82.0873C57.9353 81.92 57.6362 81.8363 57.2922 81.8363C57.007 81.8363 56.7668 81.8967 56.5715 82.0176C56.3793 82.1354 56.215 82.2888 56.0787 82.4779C55.9423 82.667 55.8183 82.8685 55.7067 83.0823C55.5982 83.2931 55.4882 83.493 55.3766 83.6821C55.265 83.8712 55.1379 84.0262 54.9953 84.147C54.8528 84.2648 54.6776 84.3237 54.47 84.3237H54.2979V85.1699H54.4932C54.7195 85.1699 54.9086 85.1436 55.0604 85.0909C55.2123 85.0351 55.3502 84.9545 55.4742 84.8491C55.5982 84.7437 55.7268 84.6151 55.8601 84.4632C56.0492 84.643 56.2321 84.7933 56.4088 84.9142C56.5854 85.0351 56.7652 85.125 56.9481 85.1839C57.131 85.2459 57.3263 85.2769 57.5339 85.2769Z" fill="black"/>
<path d="M10 10H42C46.4183 10 50 13.5817 50 18V42C50 46.4183 46.4183 50 42 50H10V10Z" fill="black"/>
<rect x="18" y="18" width="24" height="24" fill="#B2FFEF"/>
</svg>
